<?xml version="1.0" encoding="utf-8"?>
<svg version="1.1" xmlns="http://www.w3.org/2000/svg" xmlns:xlink="http://www.w3.org/1999/xlink" x="0px" y="0px"
	 viewBox="0 0 320 195" style="enable-background:new 0 0 320 195;" xml:space="preserve">
<g id="Layer_2">
	<ellipse style="opacity:0.1;" cx="160.1" cy="180.8" rx="139" ry="4.9"/>
	<ellipse style="opacity:0.1;" cx="160.1" cy="180.8" rx="137.2" ry="4.3"/>
	<ellipse style="opacity:0.1;" cx="160.1" cy="180.8" rx="135.8" ry="3.5"/>
	<ellipse style="opacity:0.1;" cx="160.1" cy="180.8" rx="134.1" ry="2.8"/>
	<ellipse style="opacity:0.1;" cx="160.1" cy="180.8" rx="133.1" ry="2.1"/>
	<ellipse style="opacity:0.1;" cx="160.1" cy="180.8" rx="131.3" ry="1.5"/>
	<ellipse style="opacity:0.1;" cx="160.1" cy="180.8" rx="130" ry="0.9"/>
	<ellipse style="opacity:0.2;" cx="160.1" cy="180.8" rx="128.3" ry="0.4"/>
</g>
<g id="Layer_1">
	<g id="Layer_1_2_">
		<g id="Layer_1_1_">
			
				<linearGradient id="SVGID_1_" gradientUnits="userSpaceOnUse" x1="291.3342" y1="277.788" x2="27.0816" y2="125.2211" gradientTransform="matrix(1 0 0 1 0 -104)">
				<stop  offset="0" style="stop-color:#D81939"/>
				<stop  offset="1" style="stop-color:#C61939"/>
			</linearGradient>
			<path style="fill:url(#SVGID_1_);" d="M280.2,180.9H38.3c-6.8,0-12.3-5.5-12.3-12.3V26.4c0-6.8,5.5-12.3,12.3-12.3h241.8
				c6.8,0,12.3,5.5,12.3,12.3v142.3C292.4,175.4,286.9,180.9,280.2,180.9L280.2,180.9z"/>
			
				<linearGradient id="SVGID_2_" gradientUnits="userSpaceOnUse" x1="84.1251" y1="104.4971" x2="61.3221" y2="122.1211" gradientTransform="matrix(1 0 0 -1 0 196)">
				<stop  offset="0.245" style="stop-color:#979797"/>
				<stop  offset="0.644" style="stop-color:#DDDDDD"/>
				<stop  offset="0.802" style="stop-color:#B4B4B4"/>
			</linearGradient>
			<path style="fill:url(#SVGID_2_);" d="M86,95.3H59.6c-2.2,0-4-1.8-4-4V74.2c0-2.2,1.8-4,4-4H86c2.2,0,4,1.8,4,4v17.1
				C90,93.5,88.2,95.3,86,95.3z"/>
			<path style="fill:#5E5E5E;" d="M86,95.5H59.6c-2.3,0-4.2-1.9-4.2-4.2V74.2c0-2.3,1.9-4.2,4.2-4.2H86c2.3,0,4.2,1.9,4.2,4.2v17.1
				C90.1,93.6,88.3,95.5,86,95.5z M59.6,70.3c-2.2,0-3.9,1.8-3.9,3.9v17.1c0,2.2,1.8,3.9,3.9,3.9H86c2.2,0,3.9-1.8,3.9-3.9V74.2
				c0-2.2-1.8-3.9-3.9-3.9C86,70.3,59.6,70.3,59.6,70.3z"/>
		</g>
		<path id="Layer_4" style="fill:#FFFFFF;" d="M246.6,154.4l-7.5,17.8h-4.9l-3.7-14.2c-0.2-0.9-0.4-1.2-1.1-1.6
			c-1.1-0.6-2.9-1.2-4.5-1.5l0.1-0.5h7.8c1,0,1.9,0.7,2.1,1.8l1.9,10.3l4.8-12.1H246.6L246.6,154.4z M265.8,166.4
			c0-4.7-6.5-5-6.5-7.1c0-0.6,0.6-1.3,2-1.5c0.7-0.1,2.5-0.2,4.5,0.8l0.8-3.8c-1.1-0.4-2.5-0.8-4.3-0.8c-4.5,0-7.8,2.4-7.8,5.9
			c0,2.6,2.3,4,4,4.8c1.8,0.9,2.4,1.4,2.4,2.2c0,1.2-1.4,1.7-2.8,1.7c-2.3,0-3.7-0.6-4.7-1.1l-0.8,3.9c1.1,0.5,3.1,0.9,5.1,0.9
			C262.6,172.5,265.8,170.1,265.8,166.4 M277.8,172.2h4.3l-3.7-17.8h-3.9c-0.9,0-1.6,0.5-2,1.3l-6.9,16.5h4.8l1-2.7h5.9L277.8,172.2
			L277.8,172.2z M272.7,165.9l2.4-6.7l1.4,6.7H272.7z M253.3,154.4l-3.8,17.8h-4.6l3.8-17.8H253.3z"/>
		<g id="Layer_3">
			<path style="fill:#FFFFFF;" d="M172.1,29.9h1.7v3c0.7-0.2,1.2-0.3,1.9-0.3c2.8,0,3.6,1.2,3.6,3s-0.8,3-3.6,3
				c-0.8,0-1.5-0.2-2.3-0.5l-0.2,0.3h-1.1L172.1,29.9L172.1,29.9z M174.4,33.8c-0.3,0-0.4,0.1-0.6,0.1v3.2c0.5,0.2,1.1,0.3,1.9,0.3
				c1.6,0,1.9-0.9,1.9-1.9s-0.3-1.9-1.9-1.9C175.1,33.7,174.7,33.7,174.4,33.8 M184.8,33.7c-1,0-2.2,0.2-2.9,0.3v-1.1
				c0.7-0.2,2.1-0.3,2.9-0.3c2.6,0,3.2,0.8,3.2,2v3.8h-1.2l-0.1-0.3c-0.7,0.3-1.6,0.4-2.3,0.4c-2.3,0-3-0.9-3-1.9
				c0-0.9,0.6-1.7,3.1-1.8l1.9-0.1v-0.1C186.3,33.9,186,33.7,184.8,33.7 M184.4,35.7c-1.1,0.1-1.4,0.5-1.4,0.9s0.1,0.9,1.4,0.9
				c0.7,0,1.5-0.2,1.9-0.3v-1.5C186.3,35.7,184.4,35.7,184.4,35.7z M195.5,34.4c0-0.5-0.6-0.7-1.4-0.7c-0.8,0-1.5,0.1-1.9,0.3v4.4
				h-1.7v-5.6h1.2l0.2,0.3c0.7-0.3,1.5-0.5,2.3-0.5c2.1,0,3.1,0.7,3.1,1.8v3.9h-1.7v-3.9H195.5L195.5,34.4z M206.7,32.7l-3.7,2.4
				l4,3.2h-2.3l-2.8-2.5l-0.6,0.4v2.1h-1.7v-8.4h1.7v4.9l2.9-2.1L206.7,32.7z"/>
			<path style="fill:#133F68;" d="M273,42.7l-0.5-0.1c-6.8,3.1-13.4,4.5-15.9,4.2c-1.8-0.2-2.4-2-0.8-4.2v-1.2
				c-3.7,3.3-4.4,6.3-1.4,6.9C257.9,49,265.4,46.6,273,42.7 M278.5,31.1v0.6c2.4-0.1,3.8,0.4,3.9,1.6c0.1,1.5-1.9,3.7-5.1,6
				c-0.1,0.1-0.3,0.2-0.4,0.3l0.6,0.2c4.4-2.7,7.2-5.5,7.1-7.2C284.5,31,282.2,30.5,278.5,31.1"/>
			<path style="fill:#FFFFFF;" d="M236.7,35.1c-0.1,0.4-0.2,0.5-0.2,0.6c0-0.1,0-0.2-0.1-0.6l-0.7-2.3h-2.3l-0.8,2.3
				c-0.1,0.4-0.1,0.5-0.1,0.6c0-0.1,0-0.2-0.2-0.6l-0.7-2.3h-2.4l2.1,5.6h2.2l0.8-2.5c0.1-0.4,0.2-0.4,0.2-0.6c0,0.1,0,0.2,0.2,0.6
				l0.8,2.4h2.2l2.1-5.6h-2.4L236.7,35.1L236.7,35.1z M226.9,33.4v-0.6h-2.1v5.6h2.1v-3.1c0.4-0.3,0.8-0.4,1.5-0.4v-2.2
				c-0.3,0-0.7,0.1-0.8,0.1C227.3,33,227,33.2,226.9,33.4 M219.3,32.5c-0.5,0.1-1,0.2-1.5,0.5c-0.9,0.5-1.3,1.3-1.5,2.2
				c-0.1,0.7,0.1,1.6,0.7,2.3c1.1,1.2,3.1,1.2,4.2,0.8c0.9-0.3,1.7-0.8,2-2c0.2-0.8,0.1-1.6-0.4-2.4C222,32.5,220.1,32.4,219.3,32.5
				 M221.2,35.7c-0.1,0.4-0.3,0.8-0.7,1.1c-0.4,0.2-0.9,0.2-1.3-0.1c-0.3-0.2-0.5-0.7-0.6-1.1c0-0.4,0.1-0.9,0.5-1.3
				c0.2-0.2,0.4-0.2,0.5-0.3c0.3-0.1,0.9,0,1.2,0.4S221.2,35.3,221.2,35.7 M260.6,38.2c1.1,0.5,2.5,0.3,3.7-0.4c0,0,0,0.3,0.1,0.5
				h2.5c-0.3-0.2-0.4-0.6-0.4-1.2v-2.4c0-0.5,0-1.1-0.3-1.5c-0.5-0.7-1.4-0.8-3.1-0.8c-1.3,0-2.2,0.1-2.7,0.7
				c-0.2,0.3-0.3,0.6-0.3,1.1h1.9c0-0.1,0.1-0.2,0.2-0.3c0.3-0.2,1.3-0.2,1.6,0c0.3,0.2,0.4,0.4,0.4,0.8h-1.1
				c-0.5,0-0.8,0.1-1.2,0.1c-0.9,0.1-1.9,0.3-2.1,1.4C259.6,37,259.8,37.7,260.6,38.2 M261.9,36.2c0.1-0.3,0.4-0.3,1.1-0.3h1.2
				c-0.2,0.7-0.6,1-1.2,1.1c-0.3,0.1-0.8,0.1-1.1-0.3V36.2 M214.3,32.9c-0.9-0.5-2.2-0.5-3.3,0.4v-0.6h-2.1v5.6h2.1V36
				c0-0.8-0.1-1.2,0.5-1.6c0.3-0.2,0.8-0.2,1.1-0.1c0.5,0.4,0.5,1.1,0.5,1.6v2.4h2.1v-3C215.2,34.4,215.2,33.5,214.3,32.9
				 M270.1,36.1c0-0.8-0.1-1.2,0.5-1.7c0.3-0.2,0.8-0.2,1.1-0.1c0.5,0.4,0.5,1.1,0.5,1.6v2.4h2.1v-3c0-1,0-1.9-0.9-2.5
				c-0.9-0.5-2.2-0.5-3.3,0.4v-0.6H268v5.6h2.1C270.1,38.2,270.1,36.1,270.1,36.1z M254.7,32.7h-2.1v0.5c-0.5-0.5-1-0.6-1.3-0.7
				c-0.8-0.1-1.9,0.2-2.5,1c-0.5,0.7-0.6,1.7-0.5,2.4c0.1,0.9,0.6,1.5,1.4,1.9c0.9,0.5,2.2,0.4,3-0.3c0,0.2,0,0.7-0.1,1
				c-0.2,0.3-0.5,0.5-0.7,0.5s-0.9,0.1-1.1-0.3c0-0.1-0.1-0.1-0.1-0.2h-2.2c0,0.4,0.2,0.7,0.2,0.8c0.5,1,1.5,1.2,2.7,1.2
				s2.2-0.1,2.8-0.9c0.6-0.7,0.5-1.6,0.5-2.5L254.7,32.7L254.7,32.7z M252.2,36.1c-0.4,0.2-1,0.2-1.3,0c-0.3-0.1-0.5-0.3-0.5-0.7
				c0-0.2,0-0.5,0.2-0.8c0.1-0.2,0.3-0.3,0.5-0.3c0.3-0.1,0.9,0,1.2,0.3c0.2,0.2,0.3,0.4,0.3,0.7C252.6,35.7,252.4,36,252.2,36.1
				 M256.3,30.6h2.1V32h-2.1V30.6z M256.3,32.7h2.1v5.6h-2.1V32.7z M242.5,32.7c-0.9,0.3-1.7,0.8-2,2c-0.2,0.9-0.1,1.7,0.4,2.5
				c1,1.4,3,1.4,3.9,1.2c0.7-0.1,2-0.5,2.4-1.7v-0.1l-2.1-0.2c-0.1,0.1-0.1,0.2-0.3,0.3c-0.4,0.3-1.1,0.2-1.4,0.1
				c-0.4-0.1-0.7-0.6-0.7-0.9h4.8v-0.1c0-0.7-0.2-1.6-0.8-2.3C245.5,32.4,243.4,32.4,242.5,32.7 M242.5,34.8c0.2-0.6,0.5-0.8,1-0.9
				c0.5-0.1,1.2,0.1,1.6,0.9H242.5z"/>
		</g>
	</g>
	<g id="Layer_2_1_" style="opacity:0.53;">
		<path style="fill:#515151;" d="M70.4,95.1c-0.2-0.2-4.9-4-4.9-8V87l0.1-0.1c1.1-1.2,2-2.5,2-4.2s-1-2.9-2-4.2l-0.1-0.1v-0.1
			c0-4,4.7-7.8,4.9-8l0.3,0.4c0,0-4.6,3.8-4.7,7.5c1.1,1.3,2.1,2.6,2.1,4.4s-1,3.2-2.1,4.4c0.1,3.7,4.6,7.5,4.7,7.5L70.4,95.1z"/>
		<path style="fill:#515151;" d="M55.7,78.2h10.1v0.5H55.7V78.2z M55.7,86.8h10.1v0.5H55.7V86.8z M75.2,95.1l-0.3-0.4
			c0,0,4.6-3.8,4.7-7.5c-1.1-1.3-2.1-2.6-2.1-4.4s1-3.2,2.1-4.4c-0.1-3.7-4.6-7.5-4.7-7.5l0.3-0.4c0.2,0.2,4.9,4,4.9,8v0.1L80,78.6
			c-1.1,1.2-2,2.5-2,4.2s1,2.9,2,4.2l0.1,0.1v0.1C80.1,91,75.4,94.9,75.2,95.1z"/>
		<path style="fill:#515151;" d="M79.8,78.2h10.1v0.5H79.8V78.2z M79.8,86.8h10.1v0.5H79.8V86.8z"/>
	</g>
	<g id="Layer_3_1_">
		<path style="fill:#686868;" d="M70.5,95c-0.2-0.2-4.8-4-4.8-7.9v0l0,0c1.1-1.2,2.1-2.5,2.1-4.3s-1-3-2.1-4.3l0,0v0
			c0-3.9,4.6-7.7,4.8-7.9l0.1,0.2c0,0-4.7,3.9-4.7,7.7c1.1,1.3,2.1,2.6,2.1,4.4s-1,3.1-2.1,4.4c0,3.8,4.7,7.6,4.7,7.7
			C70.6,94.8,70.5,95,70.5,95z"/>
		<path style="fill:#686868;" d="M55.7,78.3h10.1v0.2H55.7V78.3z M55.7,87h10.1v0.2H55.7V87z M75.1,95L75,94.8c0,0,4.7-3.9,4.7-7.7
			c-1.1-1.3-2.1-2.6-2.1-4.4s1-3.1,2.1-4.4c0-3.8-4.7-7.6-4.7-7.7l0.1-0.2c0.2,0.2,4.8,4,4.8,7.9v0l0,0c-1.1,1.2-2.1,2.5-2.1,4.3
			s1,3,2.1,4.3l0,0v0C79.9,91,75.3,94.8,75.1,95z"/>
		<path style="fill:#686868;" d="M79.8,78.3h10.1v0.2H79.8V78.3z M79.8,87h10.1v0.2H79.8V87z"/>
	</g>
</g>
</svg>
