<svg enable-background="new 0 0 97.79 155.07" viewBox="0 0 97.79 155.07" xmlns="http://www.w3.org/2000/svg"><path d="m5.76 0c-3.18 0-5.76 2.58-5.76 5.76v143.55c0 3.18 2.58 5.76 5.76 5.76h86.27c3.18 0 5.76-2.58 5.76-5.76v-143.55c0-3.18-2.58-5.76-5.76-5.76z"/><path d="m38.21 72.67c9.3 0 17.71 3.78 23.81 9.88l18.45-18.45c-10.82-10.82-25.75-17.52-42.26-17.52-14.53 0-27.85 5.19-38.21 13.81v88.92c0 3.18 2.58 5.76 5.76 5.76h67.06c2.72-1.94 5.29-4.09 7.65-6.45l-18.45-18.45c-6.1 6.1-14.51 9.88-23.81 9.88-18.61 0-33.69-15.08-33.69-33.69s15.09-33.69 33.69-33.69z" fill="#2d2d2c"/><path d="m65.3 19.62c0-1.14-.93-2.06-2.06-2.06h-10.15c-1.14 0-2.06.92-2.06 2.06v15.58c0 1.14.93 2.06 2.06 2.06h10.14c1.14 0 2.06-.93 2.06-2.06v-15.58z" fill="#eeeeef"/><path d="m63.24 17.45h-10.15c-1.2 0-2.17.98-2.17 2.17v15.58c0 1.2.98 2.17 2.17 2.17h6.95.22 2.97c1.2 0 2.17-.98 2.17-2.17v-15.58c.01-1.19-.96-2.17-2.16-2.17zm-6.95.22h3.76v6.91h-3.76zm-.23 19.48h-2.97c-1.08 0-1.95-.88-1.95-1.95v-15.58c0-1.08.88-1.95 1.95-1.95h2.97v6.91h-2.97c-.19 0-.47.13-.47.47v4.7c0 .02-.02.21.11.34.08.09.21.14.36.14h2.97zm3.99 0h-3.76v-6.91h3.51c.04 0 .25.02.25.25zm5.14-1.95c0 1.08-.88 1.95-1.95 1.95h-2.97v-6.66c0-.35-.28-.47-.47-.47h-6.7c-.09 0-.16-.02-.2-.07-.06-.07-.05-.17-.05-.18v-4.71c0-.23.21-.25.25-.25h10.15c.22 0 .25.21.25.25v1.99c0 .35.28.47.48.47h1.23v7.68zm0-7.9h-1.22c-.04 0-.25-.02-.25-.25v-2c-.01-.16-.12-.47-.47-.47h-2.97v-6.91h2.97c1.08 0 1.95.88 1.95 1.95v7.68z" fill="#707274"/><path d="m29.71 105.65c-.15-.08-.38-.16-.7-.23-.31-.07-.51-.15-.59-.21-.06-.05-.1-.12-.1-.19 0-.08.03-.15.1-.2.11-.08.25-.12.44-.12.18 0 .32.04.41.11s.15.19.18.35l.65-.03c-.01-.29-.12-.53-.32-.71s-.51-.26-.91-.26c-.25 0-.46.04-.63.11s-.31.18-.4.32-.14.29-.14.46c0 .25.1.47.29.64.14.12.38.23.73.32.27.07.44.11.52.14.11.04.19.09.23.14s.07.12.07.19c0 .12-.05.22-.16.31s-.26.13-.47.13c-.2 0-.35-.05-.47-.15s-.19-.25-.23-.47l-.63.06c.04.36.17.63.39.82s.53.28.93.28c.28 0 .51-.04.7-.12s.33-.2.43-.36.15-.33.15-.52c0-.2-.04-.37-.13-.51-.07-.11-.19-.22-.34-.3zm4.58.36h1.61v-.54h-1.61v-.71h1.73v-.54h-2.38v3.2h2.44v-.54h-1.79zm-7.96-.02c0 .25-.01.43-.03.54s-.08.2-.17.28-.23.11-.42.11c-.18 0-.32-.04-.43-.12-.1-.08-.17-.18-.2-.32-.02-.08-.02-.26-.02-.53v-1.73h-.65v1.71c0 .36.02.63.06.81.03.12.09.24.18.35s.22.21.38.28.39.11.7.11c.25 0 .46-.03.62-.1.16-.06.28-.15.38-.26.09-.11.16-.24.19-.4.04-.16.05-.43.05-.81v-1.68h-.65v1.76zm4.26-1.23h.95v2.66h.65v-2.66h.95v-.54h-2.54v.54zm1.09-92.67v-7.56h-1.16v3.18c-.16-.22-.36-.39-.62-.51-.25-.12-.55-.19-.9-.19s-.67.07-.97.2-.55.31-.77.54-.39.51-.51.82-.18.67-.18 1.04c0 .38.06.73.18 1.04.12.32.29.59.51.83.22.23.48.41.77.54.3.13.62.2.97.2s.65-.06.91-.18.46-.29.61-.51v.55h1.16zm-1.21-1.88c-.07.18-.16.35-.28.48-.12.14-.27.24-.44.32s-.37.12-.58.12c-.23 0-.43-.04-.6-.12-.18-.08-.32-.19-.44-.33s-.21-.3-.27-.48-.09-.38-.09-.59.03-.41.09-.59.15-.34.27-.48.27-.24.44-.32.38-.12.6-.12c.21 0 .41.04.58.11.17.08.32.18.44.32.12.13.21.29.28.48.07.18.1.39.1.61 0 .21-.03.41-.1.59zm-16.55 1.82c.32.13.68.2 1.06.2s.73-.07 1.06-.2.6-.32.84-.55.42-.51.56-.83c.13-.32.2-.66.2-1.03s-.07-.71-.2-1.03c-.14-.32-.33-.59-.57-.83-.24-.23-.52-.42-.84-.55s-.67-.2-1.06-.2c-.38 0-.73.07-1.06.2s-.61.32-.84.55c-.23.24-.42.51-.55.83s-.2.66-.2 1.03.07.71.2 1.03.32.59.55.83c.24.23.52.42.85.55zm-.3-3.02c.07-.19.17-.34.3-.48.13-.13.28-.24.46-.31s.37-.11.59-.11.41.04.59.11.33.18.46.31.23.29.3.48c.07.18.11.39.11.61 0 .23-.04.43-.11.62s-.17.34-.3.48c-.13.13-.28.24-.46.31s-.38.11-.59.11c-.22 0-.41-.04-.59-.11s-.33-.18-.46-.31-.23-.29-.3-.48c-.07-.18-.11-.39-.11-.62s.04-.43.11-.61zm20.54-1.86h-1.16v4.93h1.16zm-23.29 4.85c.35-.15.66-.37.91-.65l-.69-.87c-.17.2-.38.35-.62.48-.24.12-.49.18-.77.18-.21 0-.41-.04-.59-.11s-.34-.18-.47-.31c-.14-.13-.24-.29-.32-.47s-.1-.4-.1-.62.04-.43.11-.62c.08-.19.18-.35.32-.48.13-.13.29-.24.47-.31s.38-.11.59-.11c.28 0 .53.06.77.18.23.12.44.28.62.48l.69-.87c-.26-.28-.56-.5-.91-.66s-.74-.23-1.16-.23c-.38 0-.74.07-1.07.2-.34.14-.62.32-.86.55s-.43.51-.56.83-.2.67-.2 1.04.07.72.2 1.04c.14.32.32.59.56.82s.52.41.85.54.68.2 1.07.2c.42 0 .81-.08 1.16-.23zm-.26 94.4-.58-2.18h-.97v3.2h.6v-2.52l.63 2.52h.62l.64-2.52v2.52h.6v-3.2h-.97zm34.86-94.91c.24.23.52.41.85.54s.68.2 1.07.2c.42 0 .81-.08 1.16-.23s.66-.37.91-.65l-.69-.87c-.17.2-.38.35-.62.48-.23.12-.49.18-.77.18-.21 0-.41-.04-.59-.11s-.34-.18-.47-.31-.24-.29-.31-.47-.11-.4-.11-.62.04-.43.11-.62c.08-.19.18-.35.31-.48.14-.13.29-.24.47-.31s.38-.11.59-.11c.28 0 .53.06.76.18s.44.28.62.48l.69-.87c-.25-.28-.56-.5-.91-.66s-.74-.23-1.16-.23c-.39 0-.74.07-1.07.2s-.61.32-.85.55-.42.51-.56.83-.2.67-.2 1.04.07.72.2 1.04c.14.31.33.59.57.82zm-31.66 92.73-1.25 3.2h.68l.27-.73h1.28l.28.73h.7l-1.28-3.2zm-.1 1.93.43-1.19.44 1.19zm23.58-97.96c.14-.06.29-.08.46-.08.13 0 .27.01.42.04s.28.07.4.13l.25-1.12c-.12-.05-.25-.09-.38-.11-.13-.03-.28-.04-.45-.04-.3 0-.57.06-.81.17s-.43.3-.58.56v-.59h-1.15v4.93h1.16v-2.7c0-.2.03-.38.08-.54s.13-.29.23-.4c.11-.11.23-.19.37-.25zm-15.14 98.21-.58-2.18h-.97v3.2h.6v-2.52l.63 2.52h.62l.64-2.52v2.52h.6v-3.2h-.97zm-3.39-2.18h-.75l-.63 1.03-.64-1.03h-.76l.99 1.53-1.09 1.67h.77l.71-1.11.71 1.11h.78l-1.09-1.65zm5.68-92.13h1.16v-3.1c0-.29-.05-.56-.14-.8s-.22-.45-.38-.63c-.16-.17-.35-.31-.58-.41-.22-.1-.46-.15-.72-.15-.32 0-.62.07-.87.22-.26.15-.47.36-.64.64-.18-.28-.39-.49-.64-.64s-.53-.22-.85-.22c-.14 0-.26.02-.38.05-.1.05-.21.09-.3.14s-.17.12-.24.18-.13.14-.17.2v-.42h-1.14v4.93h1.16v-2.72c0-.41.07-.72.21-.93s.36-.32.66-.32.52.1.68.32c.15.21.23.52.23.92v2.74h1.16v-2.73c0-.41.08-.72.23-.93s.38-.32.68-.32.52.1.66.32c.15.21.22.52.22.92zm20.34 92.13-1.25 3.2h.69l.26-.73h1.28l.28.73h.7l-1.28-3.2zm-.1 1.93.43-1.19.44 1.19zm46.8 38.01-1.91-9.14h-2.02c-.45 0-.84.26-1.01.67l-3.54 8.47h2.48l.49-1.36h3.03l.29 1.36zm-4.82-3.24 1.24-3.43.72 3.43zm-1.76 6.37c-.66 0-1.05.53-1.05 1.21s.41 1.14 1.11 1.14c.36 0 .61-.08.75-.14l-.07-.29c-.15.07-.33.12-.62.12-.41 0-.76-.23-.77-.78h1.58c.01-.05.01-.11.01-.19-.01-.43-.2-1.07-.94-1.07zm-.66.95c.03-.28.21-.66.63-.66.46 0 .57.4.57.66zm4.15-1.96h-.41v1.34h-.01c-.1-.18-.33-.34-.68-.34-.54 0-1.01.46-1.01 1.2 0 .68.42 1.14.97 1.14.37 0 .64-.19.76-.44h.01l.02.39h.36c-.01-.15-.02-.38-.02-.58v-2.71zm-.4 2.36c0 .07 0 .12-.02.18-.08.3-.33.49-.6.49-.44 0-.67-.38-.67-.83 0-.49.25-.86.67-.86.31 0 .53.21.59.47.01.05.02.12.02.17v.38zm-5.2-.86h-.01l-.02-.45h-.36c.01.21.02.44.02.7v1.55h.41v-1.2c0-.07 0-.14.01-.19.06-.31.26-.52.55-.52.06 0 .1 0 .14.01v-.39c-.04 0-.07-.01-.11-.01-.28.01-.53.2-.63.5zm8.1-.99-.4.12v.42h-.35v.31h.35v1.23c0 .27.05.46.16.59.1.11.25.17.44.17.16 0 .28-.03.36-.06l-.02-.31c-.06.02-.12.03-.24.03-.23 0-.31-.16-.31-.44v-1.21h.58v-.31h-.58v-.54zm-1.7 2.79h.41v-2.25h-.41zm-50.35-43.3c-.09-.1-.21-.19-.35-.27.28-.04.49-.14.63-.3s.21-.35.21-.6c0-.19-.05-.36-.14-.5-.09-.15-.22-.25-.37-.31-.16-.06-.4-.09-.75-.09h-1.36v3.2h.65v-1.34h.13c.15 0 .26.01.33.04.07.02.13.07.19.13.06.07.18.22.34.47l.47.7h.77l-.39-.62c-.15-.24-.27-.42-.36-.51zm-.99-.71h-.48v-.81h.51c.26 0 .42 0 .47.01.1.02.19.06.24.13.06.07.09.15.09.26 0 .1-.02.18-.07.24-.04.06-.1.11-.18.14-.08.02-.27.03-.58.03zm51.55 40.88c-.15 0-.26.12-.26.26s.1.25.25.25c.16 0 .26-.11.26-.25 0-.15-.1-.26-.25-.26zm-8.3.29c.26 0 .48.06.63.13l.1-.33c-.11-.06-.36-.14-.74-.14-.97 0-1.64.66-1.64 1.64 0 1.03.66 1.59 1.54 1.59.38 0 .68-.08.83-.15l-.08-.33c-.16.08-.41.13-.66.13-.76 0-1.2-.49-1.2-1.26 0-.81.48-1.28 1.22-1.28zm-31.98-40.38-1.31-2.14h-.63v3.2h.6v-2.09l1.29 2.09h.65v-3.2h-.6zm3.32 0-1.31-2.14h-.63v3.2h.6v-2.09l1.29 2.09h.65v-3.2h-.6zm-10.86.04-.58-2.18h-.97v3.2h.6v-2.52l.63 2.52h.62l.64-2.52v2.52h.6v-3.2h-.97zm.06-94.17c.38 0 .74-.05 1.08-.16s.66-.29.96-.54l-.54-.86c-.21.16-.43.29-.68.39-.25.09-.5.14-.74.14-.17 0-.33-.02-.49-.07-.16-.04-.3-.11-.43-.2s-.23-.21-.31-.36-.14-.32-.16-.52h3.56c.01-.07.02-.14.02-.22s.01-.15.01-.22c0-.39-.06-.74-.17-1.06-.12-.32-.28-.59-.48-.82-.21-.23-.45-.41-.74-.53-.29-.13-.6-.19-.95-.19-.36 0-.7.06-1 .19s-.56.31-.78.53-.39.5-.51.82-.18.67-.18 1.06.06.75.19 1.07c.12.32.3.6.52.82.22.23.49.4.8.53.31.14.65.2 1.02.2zm-1.19-3.5c.06-.14.14-.25.25-.35.1-.1.23-.18.37-.23.14-.06.31-.08.49-.08.17 0 .32.03.46.08.14.06.26.13.36.23s.18.21.25.35c.06.14.1.28.12.44h-2.41c0-.15.05-.3.11-.44zm30.4 126.29-2.46 6.22-1-5.29c-.12-.59-.58-.93-1.09-.93h-4.02l-.06.27c.82.18 1.76.47 2.33.78.35.19.45.35.56.8l1.88 7.29h2.5l3.83-9.14zm3.5 0-1.95 9.14h2.36l1.96-9.14zm-21.74-123.92c-.11.02-.21.04-.32.04s-.21-.02-.3-.05-.17-.08-.23-.15-.11-.16-.15-.28c-.04-.11-.05-.25-.05-.42v-2.04h1.47v-1.05h-1.47v-1.49h-1.16v4.64c0 .66.16 1.14.47 1.46s.75.47 1.33.47c.2 0 .38-.02.55-.07.17-.04.33-.1.47-.17l-.3-1.01c-.1.06-.21.09-.31.12zm30.52 130.08c.01-2.41-3.34-2.54-3.31-3.62.01-.33.32-.68 1-.77.34-.04 1.27-.08 2.33.41l.41-1.94c-.57-.21-1.3-.41-2.21-.41-2.34 0-3.98 1.24-3.99 3.02-.02 1.32 1.17 2.05 2.07 2.49.92.45 1.23.74 1.23 1.14-.01.61-.74.88-1.41.89-1.19.02-1.88-.32-2.43-.58l-.43 2c.55.25 1.57.47 2.63.48 2.47.01 4.1-1.21 4.11-3.11z" fill="#b8babb"/></svg>