<?xml version="1.0" ?><!DOCTYPE svg  PUBLIC '-//W3C//DTD SVG 1.1//EN'  'http://www.w3.org/Graphics/SVG/1.1/DTD/svg11.dtd'><svg enable-background="new 0 0 26 26" id="Слой_1" version="1.1" viewBox="0 0 26 26" xml:space="preserve" xmlns="http://www.w3.org/2000/svg" xmlns:xlink="http://www.w3.org/1999/xlink"><g><path d="M13.4482422,3.4697266c-0.2939453-0.2939453-0.7685547-0.2919922-1.0605469,0   c-0.2929688,0.2929688-0.2929688,0.7675781,0,1.0605469C14.6533203,6.7949219,15.9013672,9.8027344,15.9013672,13   s-1.2480469,6.2050781-3.5136719,8.4697266c-0.2929688,0.2929688-0.2929688,0.7675781,0,1.0605469   C12.5341797,22.6767578,12.7255859,22.75,12.9179688,22.75c0.1914063,0,0.3837891-0.0732422,0.5302734-0.2197266   c2.5488281-2.5478516,3.953125-5.9316406,3.953125-9.5302734S15.9970703,6.0175781,13.4482422,3.4697266z" fill="#1D1D1B"/><path d="M7.8847656,5.7197266c-0.2929688,0.2929688-0.2929688,0.7675781,0,1.0605469   C9.5488281,8.4433594,10.4648438,10.6513672,10.4648438,13c0,2.3476563-0.9160156,4.5566406-2.5800781,6.2197266   c-0.2929688,0.2929688-0.2929688,0.7675781,0,1.0605469C8.03125,20.4267578,8.2226563,20.5,8.4150391,20.5   c0.1914063,0,0.3837891-0.0732422,0.5302734-0.2197266C10.8925781,18.3339844,11.9648438,15.7480469,11.9648438,13   c0-2.7490234-1.0722656-5.3349609-3.0195313-7.2802734C8.6513672,5.4257813,8.1767578,5.4277344,7.8847656,5.7197266z" fill="#1D1D1B"/><path d="M3.3818359,7.9697266c-0.2929688,0.2929688-0.2929688,0.7675781,0,1.0605469   C4.4443359,10.0917969,5.0292969,11.5019531,5.0292969,13s-0.5849609,2.9082031-1.6474609,3.9697266   c-0.2929688,0.2929688-0.2929688,0.7675781,0,1.0605469C3.5283203,18.1767578,3.7197266,18.25,3.9121094,18.25   c0.1914063,0,0.3837891-0.0732422,0.5302734-0.2197266C5.7880859,16.6855469,6.5292969,14.8994141,6.5292969,13   S5.7880859,9.3144531,4.4423828,7.9697266C4.1484375,7.6757813,3.6738281,7.6777344,3.3818359,7.9697266z" fill="#1D1D1B"/><path d="M17.9511719,1.2197266c-0.2939453-0.2939453-0.7685547-0.2919922-1.0605469,0   c-0.2929688,0.2929688-0.2929688,0.7675781,0,1.0605469C19.7578125,5.1464844,21.3369141,8.953125,21.3369141,13   s-1.5791016,7.8535156-4.4462891,10.7197266c-0.2929688,0.2929688-0.2929688,0.7675781,0,1.0605469   C17.0371094,24.9267578,17.2285156,25,17.4208984,25c0.1914063,0,0.3837891-0.0732422,0.5302734-0.2197266   C21.1015625,21.6308594,22.8369141,17.4472656,22.8369141,13C22.8369141,8.5517578,21.1015625,4.3681641,17.9511719,1.2197266z" fill="#1D1D1B"/></g></svg>